<?xml version="1.0"?>
<svg style="enable-background:new 0 0 512 512" class="" height="512" version="1.1" viewBox="0 0 484.1 484.1" width="512" x="0" xmlns="http://www.w3.org/2000/svg" y="0"
		xml:space="preserve"><g transform="matrix(-1,0,0,1,484.1000442504883,0)">
<g xmlns="http://www.w3.org/2000/svg">
	<g>
		<path style="" class=""
				d="M443.6,109.275H340.3c-3.3-23-23.8-42-48.5-42H267v-0.9c0-5.5-4.5-10-10-10c-5.5,0-10,4.5-10,10v18.3l-29.1-0.2    c-5.5,0-10,4.4-10,10c0,5.5,4.4,10,10,10l29.2,0.2v31.3l-29.3,0.2c-5.6,0.1-10,4.6-10.1,10.1c0,5.5,4.4,10,9.9,10h0.1l29.4-0.3    v18.3c0,5.5,4.5,10,10,10c5.5,0,10-4.5,10-10v-1h24.8c25.1-0.1,46-19.1,48.6-44h103.1c11.2,0,20.4,9.6,20.4,20.8v161.9    c0,11.2-9.2,20.3-20.4,20.3H442v-11.2c0-15.8-9.3-30.2-23.7-36.7l-35.1-16l-31-49.5c-9.2-14.7-25.4-23.7-42.8-23.6H176.8    c-15.7,0-30.6,7.4-40.2,19.9l-39.9,52.4l-67,18.3c-17.5,4.8-29.7,20.7-29.7,38.9v25.6c0.1,22.1,18.1,40,40.2,39.9    c0.1,0,0.1,0,0.2,0h5c7.5,27.1,35.5,43.1,62.7,35.6c17.3-4.8,30.8-18.3,35.6-35.6h149.6c7.5,27.1,35.5,43.1,62.7,35.6    c17.3-4.8,30.8-18.3,35.6-35.6h10.1c21.6,0,39.3-17,40.3-38h1.7c22.3,0,40.4-18,40.4-40.3v-161.9    C484,127.775,465.9,109.275,443.6,109.275z M321,124.175c-0.1,16.1-13.1,29.1-29.2,29.1H267v-66h24.8    c16.1,0.1,29.1,13.2,29.2,29.3V124.175z M94.5,408.175c-17.1,0-31-13.9-31-31c0-17.1,13.9-31,31-31c17.1,0,31,13.9,31,31    C125.5,394.275,111.6,408.175,94.5,408.175z M342.4,408.175c-17.1,0-31-13.9-31-31c0-17.1,13.9-31,31-31s31,13.9,31,31    C373.4,394.275,359.5,408.175,342.4,408.175z M401.6,370.275H393c-3.6-27.9-29.1-47.7-57-44.1c-23,2.9-41.2,21.1-44.1,44.1H145.1    c-3.6-27.9-29.1-47.7-57-44.1c-23,2.9-41.2,21.1-44.1,44.1h-3.6c-11.2,0-20.4-8.7-20.4-19.9v-25.6c0-9.2,6.2-17.2,15-19.6    l70.2-19.2c2.1-0.6,4-1.8,5.3-3.6l42-55.1c5.8-7.5,14.7-12,24.2-12h132.6c10.5,0,20.3,5.3,25.8,14.3l32.6,52.1    c1,1.7,2.6,3,4.3,3.8l37.9,17.2c7.3,3.3,11.9,10.5,11.9,18.5v29.2h0.2C422,361.575,412.8,370.275,401.6,370.275z"
				data-original="#000000" fill="#3597ff" />
	</g>
</g>
<g xmlns="http://www.w3.org/2000/svg">
</g>
<g xmlns="http://www.w3.org/2000/svg">
</g>
<g xmlns="http://www.w3.org/2000/svg">
</g>
<g xmlns="http://www.w3.org/2000/svg">
</g>
<g xmlns="http://www.w3.org/2000/svg">
</g>
<g xmlns="http://www.w3.org/2000/svg">
</g>
<g xmlns="http://www.w3.org/2000/svg">
</g>
<g xmlns="http://www.w3.org/2000/svg">
</g>
<g xmlns="http://www.w3.org/2000/svg">
</g>
<g xmlns="http://www.w3.org/2000/svg">
</g>
<g xmlns="http://www.w3.org/2000/svg">
</g>
<g xmlns="http://www.w3.org/2000/svg">
</g>
<g xmlns="http://www.w3.org/2000/svg">
</g>
<g xmlns="http://www.w3.org/2000/svg">
</g>
<g xmlns="http://www.w3.org/2000/svg">
</g>
</g></svg>
